<mxfile host="app.diagrams.net" modified="2023-08-24T09:46:44.194Z" agent="Mozilla/5.0 (Windows NT 10.0; Win64; x64) AppleWebKit/537.36 (KHTML, like Gecko) Chrome/115.0.0.0 Safari/537.36" etag="93Be5O1oVW3rI-_shx39" version="21.6.8" type="device">
  <diagram id="C5RBs43oDa-KdzZeNtuy" name="Page-1">
    <mxGraphModel dx="1110" dy="1069" grid="1" gridSize="10" guides="1" tooltips="1" connect="1" arrows="1" fold="1" page="1" pageScale="1" pageWidth="827" pageHeight="1169" math="0" shadow="0">
      <root>
        <mxCell id="WIyWlLk6GJQsqaUBKTNV-0" />
        <mxCell id="WIyWlLk6GJQsqaUBKTNV-1" parent="WIyWlLk6GJQsqaUBKTNV-0" />
        <mxCell id="xALUO3HwdJlkxT8yfgA3-7" value="&lt;font style=&quot;font-size: 30px;&quot;&gt;User&lt;/font&gt;" style="rounded=0;whiteSpace=wrap;html=1;strokeWidth=4;" parent="WIyWlLk6GJQsqaUBKTNV-1" vertex="1">
          <mxGeometry x="990" y="320" width="1330" height="60" as="geometry" />
        </mxCell>
        <mxCell id="xALUO3HwdJlkxT8yfgA3-140" value="" style="endArrow=none;html=1;rounded=0;entryX=0;entryY=1;entryDx=0;entryDy=0;strokeWidth=4;" parent="WIyWlLk6GJQsqaUBKTNV-1" edge="1">
          <mxGeometry width="50" height="50" relative="1" as="geometry">
            <mxPoint x="990" y="2290" as="sourcePoint" />
            <mxPoint x="990" y="380" as="targetPoint" />
          </mxGeometry>
        </mxCell>
        <mxCell id="xALUO3HwdJlkxT8yfgA3-143" value="" style="endArrow=none;html=1;rounded=0;entryX=0;entryY=1;entryDx=0;entryDy=0;strokeWidth=4;" parent="WIyWlLk6GJQsqaUBKTNV-1" edge="1">
          <mxGeometry width="50" height="50" relative="1" as="geometry">
            <mxPoint x="2320" y="2280" as="sourcePoint" />
            <mxPoint x="2320.000000000001" y="380" as="targetPoint" />
          </mxGeometry>
        </mxCell>
        <mxCell id="xALUO3HwdJlkxT8yfgA3-180" value="" style="ellipse;whiteSpace=wrap;html=1;aspect=fixed;fillColor=#000000;strokeWidth=4;" parent="WIyWlLk6GJQsqaUBKTNV-1" vertex="1">
          <mxGeometry x="1609.75" y="460" width="50" height="50" as="geometry" />
        </mxCell>
        <mxCell id="xALUO3HwdJlkxT8yfgA3-182" value="" style="endArrow=classic;html=1;rounded=0;exitX=0.5;exitY=1;exitDx=0;exitDy=0;strokeWidth=4;" parent="WIyWlLk6GJQsqaUBKTNV-1" source="xALUO3HwdJlkxT8yfgA3-180" edge="1">
          <mxGeometry width="50" height="50" relative="1" as="geometry">
            <mxPoint x="1649.75" y="690" as="sourcePoint" />
            <mxPoint x="1634.75" y="560" as="targetPoint" />
          </mxGeometry>
        </mxCell>
        <mxCell id="5QKPf6IvZNxHsTbZiPlM-3" value="" style="endArrow=classic;html=1;rounded=0;exitX=0.5;exitY=1;exitDx=0;exitDy=0;entryX=0.5;entryY=0;entryDx=0;entryDy=0;strokeWidth=4;" parent="WIyWlLk6GJQsqaUBKTNV-1" source="5QKPf6IvZNxHsTbZiPlM-23" target="5QKPf6IvZNxHsTbZiPlM-24" edge="1">
          <mxGeometry width="50" height="50" relative="1" as="geometry">
            <mxPoint x="1714.75" y="730" as="sourcePoint" />
            <mxPoint x="1734.75" y="820" as="targetPoint" />
          </mxGeometry>
        </mxCell>
        <mxCell id="5QKPf6IvZNxHsTbZiPlM-23" value="&lt;span style=&quot;font-size: 22px;&quot;&gt;เปิดไฟล์ข้อมูลการลงทะเบียนของคอร์ส&lt;/span&gt;" style="rounded=0;whiteSpace=wrap;html=1;strokeWidth=4;" parent="WIyWlLk6GJQsqaUBKTNV-1" vertex="1">
          <mxGeometry x="1524.75" y="555" width="220" height="140" as="geometry" />
        </mxCell>
        <mxCell id="5QKPf6IvZNxHsTbZiPlM-24" value="&lt;font style=&quot;font-size: 22px;&quot;&gt;สกัดข้อมูลรหัส&lt;font style=&quot;font-size: 22px;&quot;&gt;อาจารย์&lt;/font&gt;จากส่วนหัวของไฟล์&lt;/font&gt;" style="rounded=0;whiteSpace=wrap;html=1;strokeWidth=4;" parent="WIyWlLk6GJQsqaUBKTNV-1" vertex="1">
          <mxGeometry x="1524.75" y="760" width="220" height="140" as="geometry" />
        </mxCell>
        <mxCell id="TLsUlpolCmr_xRNrr_nB-10" value="&lt;font style=&quot;font-size: 22px;&quot;&gt;ส่งข้อความผลการทำงานกลับเป็น string ว่า&lt;br style=&quot;border-color: var(--border-color);&quot;&gt;ได้ดำเนินการอะไรไป&lt;br style=&quot;border-color: var(--border-color);&quot;&gt;&amp;nbsp;(insert หรือ&lt;br style=&quot;border-color: var(--border-color);&quot;&gt;ไม่ insert เพราะมีข้อมูลวิชานี้อยู่เเล้ว)&lt;/font&gt;&lt;span style=&quot;font-size: 22px;&quot;&gt;&lt;br&gt;&lt;/span&gt;" style="rounded=0;whiteSpace=wrap;html=1;strokeWidth=4;" parent="WIyWlLk6GJQsqaUBKTNV-1" vertex="1">
          <mxGeometry x="1414.5600000000002" y="1930" width="450.87" height="120" as="geometry" />
        </mxCell>
        <mxCell id="TLsUlpolCmr_xRNrr_nB-68" value="" style="endArrow=classic;html=1;rounded=0;exitX=0;exitY=0.5;exitDx=0;exitDy=0;strokeWidth=4;" parent="WIyWlLk6GJQsqaUBKTNV-1" edge="1">
          <mxGeometry width="50" height="50" relative="1" as="geometry">
            <mxPoint x="1530.4999999999995" y="1260" as="sourcePoint" />
            <mxPoint x="1604.75" y="1630" as="targetPoint" />
            <Array as="points">
              <mxPoint x="1454.75" y="1260" />
              <mxPoint x="1454.75" y="1630" />
            </Array>
          </mxGeometry>
        </mxCell>
        <mxCell id="TLsUlpolCmr_xRNrr_nB-69" value="" style="endArrow=classic;html=1;rounded=0;exitX=1;exitY=0.5;exitDx=0;exitDy=0;strokeWidth=4;" parent="WIyWlLk6GJQsqaUBKTNV-1" edge="1">
          <mxGeometry width="50" height="50" relative="1" as="geometry">
            <mxPoint x="1738.9999999999995" y="1260" as="sourcePoint" />
            <mxPoint x="1809" y="1370" as="targetPoint" />
            <Array as="points">
              <mxPoint x="1809" y="1260" />
            </Array>
          </mxGeometry>
        </mxCell>
        <mxCell id="TLsUlpolCmr_xRNrr_nB-163" value="" style="endArrow=none;html=1;rounded=0;strokeWidth=4;" parent="WIyWlLk6GJQsqaUBKTNV-1" edge="1">
          <mxGeometry width="50" height="50" relative="1" as="geometry">
            <mxPoint x="980" y="2280" as="sourcePoint" />
            <mxPoint x="2310" y="2280" as="targetPoint" />
          </mxGeometry>
        </mxCell>
        <mxCell id="O-k2_8wxdhF8gv0Fn9Ca-0" value="&lt;font style=&quot;font-size: 22px;&quot;&gt;อ่านข้อมูลรหัส&lt;font style=&quot;border-color: var(--border-color); font-size: 22px;&quot;&gt;อาจารย์&lt;/font&gt;&amp;nbsp;&lt;/font&gt;&lt;span style=&quot;font-size: 22px;&quot;&gt;จาก table &lt;br&gt;ผู้ใช้งาน&lt;/span&gt;" style="rounded=0;whiteSpace=wrap;html=1;strokeWidth=4;" parent="WIyWlLk6GJQsqaUBKTNV-1" vertex="1">
          <mxGeometry x="1524.75" y="970" width="220" height="140" as="geometry" />
        </mxCell>
        <mxCell id="O-k2_8wxdhF8gv0Fn9Ca-4" value="" style="endArrow=classic;html=1;rounded=0;exitX=0;exitY=0.5;exitDx=0;exitDy=0;entryX=1;entryY=0.5;entryDx=0;entryDy=0;exitPerimeter=0;dashed=1;strokeWidth=4;" parent="WIyWlLk6GJQsqaUBKTNV-1" source="O-k2_8wxdhF8gv0Fn9Ca-22" target="O-k2_8wxdhF8gv0Fn9Ca-0" edge="1">
          <mxGeometry width="50" height="50" relative="1" as="geometry">
            <mxPoint x="1748.75" y="1040" as="sourcePoint" />
            <mxPoint x="1916.75" y="1040" as="targetPoint" />
          </mxGeometry>
        </mxCell>
        <mxCell id="O-k2_8wxdhF8gv0Fn9Ca-7" value="&lt;font style=&quot;font-size: 22px;&quot;&gt;insert ข้อมูลอาจารย์เข้าฐานข้อมูล&lt;/font&gt;" style="rounded=0;whiteSpace=wrap;html=1;strokeWidth=4;" parent="WIyWlLk6GJQsqaUBKTNV-1" vertex="1">
          <mxGeometry x="1704.75" y="1380" width="220" height="120" as="geometry" />
        </mxCell>
        <mxCell id="O-k2_8wxdhF8gv0Fn9Ca-8" value="&lt;font style=&quot;font-size: 22px;&quot;&gt;ไม่มีรหัส&lt;font style=&quot;border-color: var(--border-color);&quot;&gt;อาจารย์&lt;br&gt;&lt;/font&gt;ในฐานข้อมูล&lt;/font&gt;" style="rhombus;whiteSpace=wrap;html=1;strokeWidth=4;" parent="WIyWlLk6GJQsqaUBKTNV-1" vertex="1">
          <mxGeometry x="1530.5" y="1170" width="208.5" height="180" as="geometry" />
        </mxCell>
        <mxCell id="O-k2_8wxdhF8gv0Fn9Ca-9" value="&lt;font style=&quot;font-size: 23px;&quot;&gt;F&lt;/font&gt;" style="text;html=1;align=center;verticalAlign=middle;resizable=0;points=[];autosize=1;strokeColor=none;fillColor=none;strokeWidth=4;" parent="WIyWlLk6GJQsqaUBKTNV-1" vertex="1">
          <mxGeometry x="1464.75" y="1210" width="40" height="40" as="geometry" />
        </mxCell>
        <mxCell id="O-k2_8wxdhF8gv0Fn9Ca-10" value="&lt;font style=&quot;font-size: 23px;&quot;&gt;T&lt;/font&gt;" style="text;html=1;align=center;verticalAlign=middle;resizable=0;points=[];autosize=1;strokeColor=none;fillColor=none;strokeWidth=4;" parent="WIyWlLk6GJQsqaUBKTNV-1" vertex="1">
          <mxGeometry x="1764.75" y="1210" width="40" height="40" as="geometry" />
        </mxCell>
        <mxCell id="O-k2_8wxdhF8gv0Fn9Ca-11" value="&lt;font style=&quot;font-size: 22px;&quot;&gt;บันทึก activity ที่ทำเข้า&lt;br&gt;log file&lt;br&gt;&lt;/font&gt;" style="rounded=0;whiteSpace=wrap;html=1;strokeWidth=4;" parent="WIyWlLk6GJQsqaUBKTNV-1" vertex="1">
          <mxGeometry x="1528.75" y="1730" width="220" height="120" as="geometry" />
        </mxCell>
        <mxCell id="O-k2_8wxdhF8gv0Fn9Ca-12" value="" style="endArrow=classic;html=1;rounded=0;exitX=0.5;exitY=1;exitDx=0;exitDy=0;entryX=0.5;entryY=0;entryDx=0;entryDy=0;strokeWidth=4;" parent="WIyWlLk6GJQsqaUBKTNV-1" edge="1">
          <mxGeometry width="50" height="50" relative="1" as="geometry">
            <mxPoint x="1632.48" y="900" as="sourcePoint" />
            <mxPoint x="1632.48" y="965" as="targetPoint" />
          </mxGeometry>
        </mxCell>
        <mxCell id="O-k2_8wxdhF8gv0Fn9Ca-13" value="" style="endArrow=classic;html=1;rounded=0;exitX=0.5;exitY=1;exitDx=0;exitDy=0;strokeWidth=4;" parent="WIyWlLk6GJQsqaUBKTNV-1" edge="1">
          <mxGeometry width="50" height="50" relative="1" as="geometry">
            <mxPoint x="1632.48" y="1110" as="sourcePoint" />
            <mxPoint x="1632.75" y="1170" as="targetPoint" />
          </mxGeometry>
        </mxCell>
        <mxCell id="O-k2_8wxdhF8gv0Fn9Ca-14" value="" style="ellipse;whiteSpace=wrap;html=1;aspect=fixed;strokeWidth=4;" parent="WIyWlLk6GJQsqaUBKTNV-1" vertex="1">
          <mxGeometry x="1609.75" y="1610" width="50" height="50" as="geometry" />
        </mxCell>
        <mxCell id="O-k2_8wxdhF8gv0Fn9Ca-15" value="" style="endArrow=classic;html=1;rounded=0;exitX=0.5;exitY=1;exitDx=0;exitDy=0;strokeWidth=4;" parent="WIyWlLk6GJQsqaUBKTNV-1" source="O-k2_8wxdhF8gv0Fn9Ca-7" edge="1">
          <mxGeometry width="50" height="50" relative="1" as="geometry">
            <mxPoint x="1783.6100000000001" y="1550" as="sourcePoint" />
            <mxPoint x="1664.75" y="1630" as="targetPoint" />
            <Array as="points">
              <mxPoint x="1814.75" y="1630" />
            </Array>
          </mxGeometry>
        </mxCell>
        <mxCell id="O-k2_8wxdhF8gv0Fn9Ca-16" value="" style="endArrow=classic;html=1;rounded=0;exitX=0.5;exitY=1;exitDx=0;exitDy=0;strokeWidth=4;" parent="WIyWlLk6GJQsqaUBKTNV-1" edge="1">
          <mxGeometry width="50" height="50" relative="1" as="geometry">
            <mxPoint x="1634.13" y="1660" as="sourcePoint" />
            <mxPoint x="1634.4" y="1720" as="targetPoint" />
          </mxGeometry>
        </mxCell>
        <mxCell id="O-k2_8wxdhF8gv0Fn9Ca-17" value="" style="endArrow=classic;html=1;rounded=0;exitX=0.5;exitY=1;exitDx=0;exitDy=0;entryX=0.5;entryY=0;entryDx=0;entryDy=0;strokeWidth=4;" parent="WIyWlLk6GJQsqaUBKTNV-1" source="O-k2_8wxdhF8gv0Fn9Ca-11" target="TLsUlpolCmr_xRNrr_nB-10" edge="1">
          <mxGeometry width="50" height="50" relative="1" as="geometry">
            <mxPoint x="1634.16" y="1860" as="sourcePoint" />
            <mxPoint x="1634.43" y="1920" as="targetPoint" />
          </mxGeometry>
        </mxCell>
        <mxCell id="O-k2_8wxdhF8gv0Fn9Ca-18" value="" style="ellipse;whiteSpace=wrap;html=1;aspect=fixed;strokeWidth=4;" parent="WIyWlLk6GJQsqaUBKTNV-1" vertex="1">
          <mxGeometry x="1613.75" y="2151" width="50" height="50" as="geometry" />
        </mxCell>
        <mxCell id="O-k2_8wxdhF8gv0Fn9Ca-19" value="" style="ellipse;whiteSpace=wrap;html=1;aspect=fixed;fillColor=#050505;strokeWidth=4;" parent="WIyWlLk6GJQsqaUBKTNV-1" vertex="1">
          <mxGeometry x="1621.25" y="2158.5" width="35" height="35" as="geometry" />
        </mxCell>
        <mxCell id="O-k2_8wxdhF8gv0Fn9Ca-20" value="" style="endArrow=classic;html=1;rounded=0;exitX=0.5;exitY=1;exitDx=0;exitDy=0;entryX=0.5;entryY=0;entryDx=0;entryDy=0;strokeWidth=4;" parent="WIyWlLk6GJQsqaUBKTNV-1" edge="1">
          <mxGeometry width="50" height="50" relative="1" as="geometry">
            <mxPoint x="1638.75" y="2050" as="sourcePoint" />
            <mxPoint x="1638.7499999999995" y="2151" as="targetPoint" />
          </mxGeometry>
        </mxCell>
        <mxCell id="O-k2_8wxdhF8gv0Fn9Ca-22" value="&lt;font style=&quot;font-size: 22px;&quot;&gt;&lt;font style=&quot;font-size: 22px;&quot;&gt;Database&amp;nbsp;&lt;br&gt;&lt;br&gt;Users Table&lt;br&gt;&lt;br&gt;&lt;br style=&quot;border-color: var(--border-color);&quot;&gt;&lt;br&gt;&lt;/font&gt;&lt;/font&gt;" style="shape=cylinder3;whiteSpace=wrap;html=1;boundedLbl=1;backgroundOutline=1;size=15;strokeWidth=4;" parent="WIyWlLk6GJQsqaUBKTNV-1" vertex="1">
          <mxGeometry x="1990" y="975" width="181.25" height="135" as="geometry" />
        </mxCell>
        <mxCell id="bV30CXfLPL4KruaFoPWT-0" value="&lt;font style=&quot;font-size: 22px;&quot;&gt;&lt;font style=&quot;font-size: 22px;&quot;&gt;Database&amp;nbsp;&lt;br&gt;&lt;br&gt;Users Table&lt;br&gt;&lt;br&gt;&lt;br style=&quot;border-color: var(--border-color);&quot;&gt;&lt;br&gt;&lt;/font&gt;&lt;/font&gt;" style="shape=cylinder3;whiteSpace=wrap;html=1;boundedLbl=1;backgroundOutline=1;size=15;strokeWidth=4;" parent="WIyWlLk6GJQsqaUBKTNV-1" vertex="1">
          <mxGeometry x="2020" y="1372.5" width="181.25" height="135" as="geometry" />
        </mxCell>
        <mxCell id="bV30CXfLPL4KruaFoPWT-1" value="" style="endArrow=classic;html=1;rounded=0;entryX=0;entryY=0.5;entryDx=0;entryDy=0;entryPerimeter=0;exitX=1;exitY=0.5;exitDx=0;exitDy=0;dashed=1;strokeWidth=4;" parent="WIyWlLk6GJQsqaUBKTNV-1" source="O-k2_8wxdhF8gv0Fn9Ca-7" target="bV30CXfLPL4KruaFoPWT-0" edge="1">
          <mxGeometry width="50" height="50" relative="1" as="geometry">
            <mxPoint x="1420" y="1070" as="sourcePoint" />
            <mxPoint x="1470" y="1020" as="targetPoint" />
          </mxGeometry>
        </mxCell>
      </root>
    </mxGraphModel>
  </diagram>
</mxfile>
